<svg xmlns="http://www.w3.org/2000/svg" viewBox="0 0 220 220" width="1024" height="1024">
  <defs>
    <linearGradient id="g_reserve" x1="15%" y1="0%" x2="85%" y2="100%">
      <stop offset="0%" stop-color="#D5DDD0"/>
      <stop offset="100%" stop-color="#C3CBBE"/>
    </linearGradient>
    <radialGradient id="rg_reserve" cx="50%" cy="36%" r="48%">
      <stop offset="0%" stop-color="rgba(255,255,255,0.15)"/>
      <stop offset="100%" stop-color="rgba(255,255,255,0)"/>
    </radialGradient>
    <linearGradient id="sh_reserve" x1="0" y1="0" x2="0" y2="1">
      <stop offset="0%" stop-color="rgba(255,255,255,0.18)"/>
      <stop offset="55%" stop-color="rgba(255,255,255,0.02)"/>
      <stop offset="100%" stop-color="rgba(0,0,0,0)"/>
    </linearGradient>
    <filter id="f_reserve">
      <feDropShadow dx="0" dy="2" stdDeviation="3" flood-color="#253326" flood-opacity="0.12"/>
    </filter>
  </defs>
  <rect x="4" y="4" width="212" height="212" rx="50" fill="#B1B9AC" opacity="0.5"/>
  <rect x="6" y="6" width="208" height="208" rx="48" fill="url(#g_reserve)"/>
  <rect x="6" y="6" width="208" height="208" rx="48" fill="url(#rg_reserve)"/>
  <rect x="6" y="6" width="208" height="208" rx="48" fill="url(#sh_reserve)"/>
  <rect x="7" y="7" width="206" height="206" rx="47" fill="none" stroke="rgba(37, 51, 38, 0.12)" stroke-width="1"/>
  <g transform="translate(50 22) scale(5.0)" fill="none" stroke="#253326" stroke-width="1.8" stroke-linecap="round" stroke-linejoin="round" opacity="0.95" filter="url(#f_reserve)">
    <path d="M8 3l-1 9a5 5 0 0 0 10 0L16 3H8z"/>
    <line x1="12" y1="17" x2="12" y2="21"/>
    <line x1="9" y1="21" x2="15" y2="21"/>
  </g>
  <text x="110" y="172" text-anchor="middle" fill="#253326" font-family="Inter,-apple-system,Helvetica Neue,Arial,sans-serif" font-size="29" font-weight="700" letter-spacing="7">ALMA</text>
  <text x="110" y="194" text-anchor="middle" fill="#253326" font-family="Inter,-apple-system,Helvetica Neue,Arial,sans-serif" font-size="12" font-weight="700" letter-spacing="4">RESERVE</text>
</svg>
