<svg xmlns="http://www.w3.org/2000/svg" viewBox="0 0 220 220" width="1024" height="1024">
  <defs>
    <linearGradient id="g_giftcards" x1="15%" y1="0%" x2="85%" y2="100%">
      <stop offset="0%" stop-color="#0E9898"/>
      <stop offset="100%" stop-color="#044040"/>
    </linearGradient>
    <radialGradient id="rg_giftcards" cx="50%" cy="36%" r="48%">
      <stop offset="0%" stop-color="rgba(255,255,255,0.15)"/>
      <stop offset="100%" stop-color="rgba(255,255,255,0)"/>
    </radialGradient>
    <linearGradient id="sh_giftcards" x1="0" y1="0" x2="0" y2="1">
      <stop offset="0%" stop-color="rgba(255,255,255,0.18)"/>
      <stop offset="55%" stop-color="rgba(255,255,255,0.02)"/>
      <stop offset="100%" stop-color="rgba(0,0,0,0)"/>
    </linearGradient>
    <filter id="f_giftcards">
      <feDropShadow dx="0" dy="2" stdDeviation="3" flood-color="#000" flood-opacity="0.26"/>
    </filter>
  </defs>
  <rect x="4" y="4" width="212" height="212" rx="50" fill="#021E1E" opacity="0.8"/>
  <rect x="6" y="6" width="208" height="208" rx="48" fill="url(#g_giftcards)"/>
  <rect x="6" y="6" width="208" height="208" rx="48" fill="url(#rg_giftcards)"/>
  <rect x="6" y="6" width="208" height="208" rx="48" fill="url(#sh_giftcards)"/>
  <rect x="7" y="7" width="206" height="206" rx="47" fill="none" stroke="rgba(255,255,255,0.13)" stroke-width="1"/>
  <g transform="translate(50 22) scale(5.0)" fill="none" stroke="white" stroke-width="1.8" stroke-linecap="round" stroke-linejoin="round" opacity="0.95" filter="url(#f_giftcards)">
    <polyline points="20 12 20 22 4 22 4 12"/>
    <rect x="2" y="7" width="20" height="5"/>
    <line x1="12" y1="22" x2="12" y2="7"/>
    <path d="M12 7H7.5a2.5 2.5 0 0 1 0-5C11 2 12 7 12 7z"/>
    <path d="M12 7h4.5a2.5 2.5 0 0 0 0-5C13 2 12 7 12 7z"/>
  </g>
  <text x="110" y="172" text-anchor="middle" fill="rgba(255,255,255,0.95)" font-family="Inter,-apple-system,Helvetica Neue,Arial,sans-serif" font-size="29" font-weight="700" letter-spacing="7">ALMA</text>
  <text x="110" y="194" text-anchor="middle" fill="rgba(255,255,255,0.62)" font-family="Inter,-apple-system,Helvetica Neue,Arial,sans-serif" font-size="10.5" font-weight="700" letter-spacing="3">GIFT CARDS</text>
</svg>
