<svg xmlns="http://www.w3.org/2000/svg" viewBox="0 0 220 220" width="1024" height="1024">
  <defs>
    <linearGradient id="g_compliance" x1="15%" y1="0%" x2="85%" y2="100%">
      <stop offset="0%" stop-color="#ECD9D2"/>
      <stop offset="100%" stop-color="#DAC7C0"/>
    </linearGradient>
    <radialGradient id="rg_compliance" cx="50%" cy="36%" r="48%">
      <stop offset="0%" stop-color="rgba(255,255,255,0.15)"/>
      <stop offset="100%" stop-color="rgba(255,255,255,0)"/>
    </radialGradient>
    <linearGradient id="sh_compliance" x1="0" y1="0" x2="0" y2="1">
      <stop offset="0%" stop-color="rgba(255,255,255,0.18)"/>
      <stop offset="55%" stop-color="rgba(255,255,255,0.02)"/>
      <stop offset="100%" stop-color="rgba(0,0,0,0)"/>
    </linearGradient>
    <filter id="f_compliance">
      <feDropShadow dx="0" dy="2" stdDeviation="3" flood-color="#253326" flood-opacity="0.12"/>
    </filter>
  </defs>
  <rect x="4" y="4" width="212" height="212" rx="50" fill="#C9B6AE" opacity="0.5"/>
  <rect x="6" y="6" width="208" height="208" rx="48" fill="url(#g_compliance)"/>
  <rect x="6" y="6" width="208" height="208" rx="48" fill="url(#rg_compliance)"/>
  <rect x="6" y="6" width="208" height="208" rx="48" fill="url(#sh_compliance)"/>
  <rect x="7" y="7" width="206" height="206" rx="47" fill="none" stroke="rgba(37, 51, 38, 0.12)" stroke-width="1"/>
  <g transform="translate(50 22) scale(5.0)" fill="none" stroke="#253326" stroke-width="1.8" stroke-linecap="round" stroke-linejoin="round" opacity="0.95" filter="url(#f_compliance)">
    <path d="M12 22s8-4 8-10V5l-8-3-8 3v7c0 6 8 10 8 10z"/>
    <polyline points="9 12 11 14 15 10"/>
  </g>
  <text x="110" y="172" text-anchor="middle" fill="#253326" font-family="Inter,-apple-system,Helvetica Neue,Arial,sans-serif" font-size="29" font-weight="700" letter-spacing="7">ALMA</text>
  <text x="110" y="194" text-anchor="middle" fill="#253326" font-family="Inter,-apple-system,Helvetica Neue,Arial,sans-serif" font-size="10.5" font-weight="700" letter-spacing="3.5">COMPLIANCE</text>
</svg>
